
<svg version="1.0" xmlns="http://www.w3.org/2000/svg"
 width="500.000000pt" height="500.000000pt" viewBox="0 0 500.000000 500.000000"
 preserveAspectRatio="xMidYMid meet">

<g transform="translate(0.000000,500.000000) scale(0.100000,-0.100000)"
fill="#000000" stroke="none">
<path d="M2725 4246 c-3 -11 -16 -72 -30 -134 -29 -130 -25 -168 25 -219 45
-46 141 -66 208 -42 37 13 89 86 98 138 3 20 15 71 26 115 10 43 18 80 16 81
-2 2 -20 8 -41 13 -45 12 -39 22 -68 -113 -31 -147 -60 -185 -129 -170 -32 7
-70 47 -70 75 0 10 11 67 25 128 14 61 25 115 25 120 0 5 -18 14 -40 20 -37 9
-41 8 -45 -12z"/>
<path d="M2085 4119 c-27 -24 -36 -28 -41 -16 -4 12 -12 13 -40 4 -31 -9 -35
-14 -31 -36 3 -21 67 -248 72 -259 2 -2 67 19 74 24 2 2 -7 41 -19 88 -22 81
-22 87 -6 111 9 14 28 30 41 35 22 8 23 12 14 42 -5 18 -9 34 -9 35 0 11 -25
-2 -55 -28z"/>
<path d="M3165 4078 c-12 -29 -48 -107 -79 -173 l-55 -120 35 -18 c20 -10 40
-15 44 -10 5 4 34 64 65 133 31 69 65 143 75 165 l18 40 -36 18 c-19 9 -37 17
-39 17 -2 0 -15 -24 -28 -52z"/>
<path d="M3424 3968 c-50 -40 -107 -86 -128 -103 -85 -66 -191 -156 -194 -164
-1 -4 9 -16 23 -25 29 -19 15 -28 181 109 33 27 109 88 167 134 59 47 107 86
107 88 0 3 -57 33 -63 33 -2 0 -44 -33 -93 -72z"/>
<path d="M1750 4008 c-105 -53 -122 -177 -36 -257 54 -51 173 -35 232 31 35
39 36 55 3 67 -24 8 -30 7 -39 -9 -23 -43 -99 -63 -135 -36 -18 13 -11 18 82
62 56 27 102 54 102 61 1 20 -52 75 -86 89 -45 19 -72 17 -123 -8z m106 -62
c10 -8 17 -16 14 -19 -7 -6 -130 -67 -135 -67 -3 0 -5 11 -5 25 0 57 79 95
126 61z"/>
<path d="M2382 3968 c-20 -20 -15 -66 9 -78 47 -26 100 25 72 69 -13 20 -64
26 -81 9z"/>
<path d="M3498 3806 c-48 -52 -92 -106 -98 -121 -35 -93 22 -200 122 -230 77
-23 107 -8 223 106 l100 98 -30 31 -29 30 -96 -95 c-87 -85 -101 -95 -134 -95
-48 0 -86 38 -86 87 0 29 13 47 92 129 l91 94 -28 30 c-16 17 -31 30 -34 30
-3 0 -45 -43 -93 -94z"/>
<path d="M1440 3804 c-22 -20 -40 -44 -40 -53 0 -23 -11 -33 -24 -22 -7 6 -22
1 -40 -14 l-29 -23 99 -117 c54 -64 113 -133 130 -153 l31 -36 31 23 c18 12
32 24 32 26 0 1 -18 25 -40 51 l-40 49 27 10 c53 19 71 35 93 80 49 101 -27
215 -142 215 -41 0 -54 -5 -88 -36z m138 -69 c30 -28 34 -86 7 -115 -28 -31
-88 -27 -114 7 -31 38 -35 67 -15 98 32 49 78 53 122 10z"/>
<path d="M1207 3549 c-42 -22 -82 -80 -92 -132 -5 -27 -2 -48 14 -80 39 -81
141 -112 212 -64 107 72 115 213 15 272 -51 30 -98 31 -149 4z m102 -74 c32
-16 41 -33 41 -76 0 -46 -34 -72 -83 -66 -74 10 -105 93 -51 136 31 25 55 26
93 6z"/>
<path d="M3883 3508 c-17 -35 -36 -81 -42 -101 -7 -20 -16 -38 -19 -40 -4 -2
-60 1 -124 7 l-118 12 24 -41 c24 -40 24 -40 105 -49 92 -10 91 -7 45 -98 -30
-58 -30 -61 0 -104 l24 -35 27 58 c15 32 36 82 47 112 l20 53 77 -6 c42 -4 93
-9 114 -12 l38 -6 -20 41 c-20 38 -24 41 -64 42 -23 0 -59 3 -80 7 l-37 7 31
65 c32 68 32 89 1 129 l-19 23 -30 -64z"/>
<path d="M903 3306 c-9 -20 -15 -38 -12 -40 8 -8 349 -176 358 -176 9 0 31 45
31 63 0 9 -240 135 -352 185 -4 2 -15 -13 -25 -32z"/>
<path d="M973 3094 c-66 -34 -97 -135 -64 -212 18 -43 84 -82 138 -82 80 0
153 85 153 179 0 63 -9 75 -44 60 -22 -11 -26 -17 -21 -40 8 -37 -18 -96 -50
-111 -14 -6 -28 -9 -31 -5 -5 5 13 74 47 181 5 16 7 31 4 34 -14 14 -103 11
-132 -4z m67 -67 c0 -19 -31 -110 -41 -121 -5 -5 -14 -4 -24 4 -22 19 -20 85
5 110 23 23 60 27 60 7z"/>
<path d="M4145 2973 c-84 -12 -308 -52 -312 -56 -6 -7 16 -163 29 -207 15 -48
61 -104 102 -124 78 -37 201 -6 239 62 34 59 38 99 19 220 -13 87 -20 112 -32
111 -8 -1 -28 -4 -45 -6z m14 -184 c1 -78 -18 -111 -75 -129 -89 -30 -154 23
-169 136 l-7 49 119 20 c137 24 131 27 132 -76z"/>
<path d="M850 2762 c0 -38 0 -38 90 -82 49 -25 90 -48 90 -52 0 -4 -45 -21
-100 -38 l-100 -31 0 -43 0 -44 73 27 c39 14 107 37 150 51 l77 24 0 42 c0 23
-6 46 -12 52 -17 12 -252 132 -261 132 -4 0 -7 -17 -7 -38z"/>
<path d="M3939 2507 c-68 -44 -97 -150 -63 -223 15 -32 17 -33 39 -18 21 13
23 21 18 72 -4 51 -2 60 22 85 35 36 49 35 42 -5 -4 -18 -9 -70 -13 -115 l-7
-83 44 0 c54 0 102 28 125 71 25 49 16 150 -16 185 -55 58 -131 71 -191 31z
m145 -86 c26 -29 18 -89 -16 -114 -15 -12 -30 -19 -32 -16 -3 3 -2 37 1 77 6
76 16 87 47 53z"/>
<path d="M909 2427 c-50 -33 -72 -85 -64 -148 23 -170 251 -183 295 -18 16 59
-5 135 -45 169 -15 12 -19 11 -35 -10 -17 -23 -17 -25 1 -54 25 -41 24 -77 -3
-111 -27 -35 -32 -26 -48 98 -13 95 -14 97 -40 97 -15 0 -42 -10 -61 -23z m55
-89 c19 -123 18 -126 -19 -112 -17 7 -45 54 -45 77 0 17 38 67 50 67 5 0 11
-15 14 -32z"/>
<path d="M3861 2217 c-25 -31 -61 -126 -61 -163 0 -73 60 -120 116 -91 15 8
40 40 58 73 36 68 60 77 64 24 2 -25 -5 -47 -22 -73 l-25 -37 24 -16 c30 -20
43 -12 65 40 46 104 21 196 -53 196 -45 0 -68 -19 -101 -85 -20 -38 -33 -54
-43 -51 -8 4 -17 6 -19 6 -13 0 0 51 26 97 17 29 30 54 30 57 0 2 -11 11 -24
19 -19 13 -26 14 -35 4z"/>
<path d="M986 2095 c-51 -18 -92 -59 -112 -112 -26 -66 -18 -101 72 -310 4 -7
41 4 112 34 59 25 134 57 167 70 33 14 64 29 69 34 16 15 -70 201 -112 243
-57 55 -120 68 -196 41z m142 -91 c19 -12 88 -133 79 -140 -8 -6 -196 -83
-210 -86 -14 -2 -23 9 -38 47 -25 66 -24 115 3 150 42 54 110 66 166 29z"/>
<path d="M3737 1923 c-9 -20 -15 -38 -14 -39 1 -1 60 -29 131 -63 120 -58 129
-60 142 -44 14 19 28 53 22 56 -16 10 -258 127 -261 127 -1 0 -10 -17 -20 -37z"/>
<path d="M3587 1845 c-90 -69 -120 -183 -65 -243 29 -31 230 -181 243 -182 15
0 46 58 34 65 -15 10 -10 25 8 25 9 0 33 18 55 40 35 37 38 46 38 95 0 49 -4
59 -36 94 -43 48 -99 62 -156 38 -46 -19 -88 -75 -88 -115 0 -18 -4 -32 -9
-32 -16 0 -41 43 -41 69 0 23 35 91 48 91 4 0 17 8 30 18 20 15 22 22 13 45
-6 15 -14 27 -19 27 -5 0 -30 -16 -55 -35z m217 -166 c14 -17 26 -39 26 -49 0
-33 -48 -80 -83 -80 -72 0 -101 78 -48 131 39 38 72 38 105 -2z"/>
<path d="M4069 1796 c-34 -17 -39 -68 -7 -83 45 -20 91 25 68 67 -13 25 -33
30 -61 16z"/>
<path d="M1371 1622 c-35 -6 -79 -35 -106 -73 -51 -68 -18 -182 61 -211 19 -7
34 -15 34 -18 0 -3 -20 -25 -45 -48 l-46 -43 21 -29 c12 -17 25 -30 30 -30 4
0 33 24 63 53 30 28 88 84 129 124 107 103 104 97 78 133 -17 24 -25 28 -36
20 -10 -9 -15 -6 -20 17 -15 63 -96 116 -163 105z m93 -104 c57 -81 -50 -183
-119 -113 -53 52 -13 135 64 135 30 0 44 -6 55 -22z"/>
<path d="M3467 1532 l-28 -29 56 -67 c61 -75 70 -111 35 -146 -38 -38 -64 -27
-139 60 l-59 68 -32 -26 -32 -27 70 -81 c75 -86 114 -111 159 -99 43 10 91 52
98 85 5 25 10 29 29 24 15 -3 28 2 43 18 l22 23 -80 95 c-120 143 -110 136
-142 102z"/>
<path d="M1635 1391 c-13 -22 4 -61 27 -61 30 0 87 -41 94 -67 14 -55 1 -54
-95 8 -85 55 -95 59 -109 45 -26 -25 -27 -124 -3 -163 38 -60 126 -88 199 -62
77 27 116 142 70 209 -45 66 -162 124 -183 91z m69 -205 l30 -20 -30 -12 c-53
-23 -104 8 -104 63 l0 35 38 -23 c20 -12 50 -32 66 -43z"/>
<path d="M3128 1295 c-31 -10 -57 -28 -77 -52 -38 -46 -38 -50 -5 -65 22 -10
28 -9 47 14 31 35 76 52 110 39 15 -6 27 -14 27 -19 0 -4 -43 -30 -95 -57 -52
-27 -95 -55 -95 -62 0 -7 16 -28 35 -47 127 -128 336 40 238 191 -41 63 -104
83 -185 58z m136 -144 c11 -18 -13 -60 -43 -75 -22 -12 -37 -13 -54 -7 -44 17
-39 30 20 60 65 34 69 35 77 22z"/>
<path d="M1919 1123 c-35 -54 -66 -102 -68 -107 -2 -6 -21 -37 -43 -70 l-39
-60 38 -11 c45 -13 44 -14 150 163 20 34 40 62 44 62 4 0 10 -48 13 -107 8
-125 14 -171 24 -176 4 -3 21 -8 37 -11 29 -6 32 -3 105 114 87 139 85 140 96
-51 l6 -115 40 -11 41 -11 -7 117 c-3 64 -9 155 -13 203 l-6 86 -45 12 c-24 6
-46 10 -47 8 -1 -2 -26 -41 -56 -88 -30 -47 -63 -99 -75 -114 l-21 -29 -7 139
c-4 76 -8 139 -9 140 -1 1 -23 5 -48 9 l-46 7 -64 -99z"/>
<path d="M2893 1200 l-22 -9 20 -63 c32 -106 23 -156 -32 -173 -17 -6 -19 -12
-13 -38 3 -18 8 -34 9 -35 8 -8 45 11 69 35 22 21 26 23 26 8 0 -14 6 -16 32
-11 18 3 36 10 41 15 5 5 -7 59 -27 126 -20 65 -36 126 -36 136 0 21 -28 24
-67 9z"/>
<path d="M2545 1134 c-26 -26 -16 -77 17 -88 22 -8 32 -6 48 9 24 22 25 43 4
73 -18 26 -46 28 -69 6z"/>
</g>
</svg>
