<svg version="1.0" xmlns="http://www.w3.org/2000/svg"
 width="1080.000000pt" height="1080.000000pt" viewBox="0 0 1080.000000 1080.000000"
 preserveAspectRatio="xMidYMid meet">

<g transform="translate(0.000000,1080.000000) scale(0.100000,-0.100000)"
fill="#000000" stroke="none">
<path d="M5262 9081 c-138 -48 -219 -186 -192 -330 19 -101 72 -166 176 -213
71 -32 217 -32 291 1 28 12 60 32 71 44 l20 22 -43 48 -44 47 -35 -23 c-86
-59 -220 -35 -259 46 l-16 32 217 5 217 5 -2 64 c-6 197 -203 320 -401 252z
m192 -132 c24 -19 62 -77 54 -84 -2 -1 -65 -5 -141 -8 l-139 -5 6 26 c4 15 22
42 41 60 31 29 41 32 94 32 44 0 65 -5 85 -21z"/>
<path d="M5806 9059 c-5 -16 -76 -492 -79 -529 -2 -23 2 -25 78 -37 43 -7 80
-11 81 -10 0 1 11 70 23 152 13 85 30 163 39 179 30 52 66 71 131 69 l59 -1 6
41 c4 23 9 57 13 76 l6 34 -71 -5 c-47 -4 -81 -12 -104 -26 l-34 -21 4 33 c4
37 4 37 -100 52 -36 5 -49 3 -52 -7z"/>
<path d="M4671 9030 c-52 -11 -127 -53 -141 -80 -15 -28 -30 -25 -30 5 0 14
-6 25 -12 25 -20 -1 -139 -27 -144 -32 -4 -4 154 -749 161 -756 4 -5 133 21
146 29 10 6 7 34 -11 121 -13 62 -25 119 -28 125 -3 10 5 9 32 -2 55 -23 152
-19 211 9 97 45 165 151 165 257 0 62 -36 161 -76 207 -65 76 -172 112 -273
92z m107 -160 c93 -57 94 -222 1 -272 -108 -58 -219 16 -219 147 0 57 22 100
63 125 42 26 112 26 155 0z"/>
<path d="M3982 8810 c-64 -14 -159 -68 -202 -118 -102 -115 -89 -299 29 -405
76 -68 167 -90 269 -63 125 32 217 115 248 224 21 70 13 128 -27 210 -56 115
-188 178 -317 152z m124 -172 c65 -57 84 -150 44 -215 -53 -88 -194 -83 -250
9 -67 110 -2 238 121 238 40 0 55 -5 85 -32z"/>
<path d="M7138 8607 c-70 -105 -137 -214 -149 -242 -29 -66 -30 -163 -1 -228
51 -115 215 -221 342 -221 79 0 145 28 205 88 30 31 246 339 288 412 6 10
-130 111 -137 102 -2 -2 -62 -92 -135 -200 -142 -213 -172 -243 -246 -243 -61
0 -132 46 -157 102 -31 69 -16 109 116 308 62 94 120 182 129 196 l17 26 -70
46 c-38 26 -71 47 -72 47 -2 0 -60 -87 -130 -193z"/>
<path d="M3317 8708 c-42 -25 -66 -46 -63 -54 11 -28 410 -654 417 -654 4 0
37 19 72 41 l65 41 -130 207 c-72 113 -164 260 -206 326 -41 66 -78 123 -81
127 -4 4 -37 -11 -74 -34z"/>
<path d="M6431 8516 c-77 -43 -63 -157 23 -186 105 -34 180 103 94 175 -33 28
-79 32 -117 11z"/>
<path d="M3123 8286 c-225 -73 -301 -337 -145 -499 89 -92 212 -116 327 -63
113 51 196 144 214 238 l8 46 -36 6 c-20 3 -50 6 -67 6 -29 0 -32 -4 -39 -36
-9 -49 -80 -119 -136 -134 -44 -12 -119 0 -119 19 0 5 67 65 149 134 81 70
154 133 160 141 10 12 5 22 -25 56 -73 81 -196 117 -291 86z m133 -148 c13
-12 3 -24 -73 -89 -121 -103 -123 -105 -134 -88 -5 8 -9 35 -9 60 0 52 22 88
74 121 36 22 118 20 142 -4z"/>
<path d="M7745 7994 c-137 -145 -250 -268 -250 -273 0 -4 27 -32 59 -62 l59
-54 106 111 c58 61 173 181 255 268 l149 157 -58 59 c-33 33 -62 60 -65 60 -3
-1 -117 -120 -255 -266z"/>
<path d="M2684 7909 c-27 -34 -48 -65 -47 -69 1 -3 44 -85 97 -181 52 -95 93
-175 91 -177 -2 -2 -90 22 -195 53 -105 31 -195 55 -199 53 -19 -7 -103 -120
-95 -127 5 -4 139 -45 297 -90 l288 -83 18 24 c11 12 35 43 54 68 l36 44 -28
51 c-16 27 -82 149 -146 270 -65 121 -119 221 -120 223 -2 2 -25 -25 -51 -59z"/>
<path d="M8050 7724 c-267 -102 -488 -189 -493 -193 -4 -4 14 -31 40 -60 l48
-53 493 189 c270 103 492 190 492 193 0 4 -21 29 -47 58 l-48 52 -485 -186z"/>
<path d="M8370 7499 c-216 -127 -255 -156 -298 -229 -24 -40 -27 -55 -27 -135
0 -82 3 -96 34 -157 85 -171 233 -244 388 -192 26 9 139 68 250 132 l202 116
-31 56 c-56 103 -32 105 -244 -17 -230 -132 -232 -133 -296 -133 -48 0 -55 3
-93 44 -73 76 -78 163 -12 229 18 17 121 83 230 145 l197 113 -31 52 c-17 29
-35 62 -41 75 -6 12 -14 22 -17 21 -3 0 -98 -54 -211 -120z"/>
<path d="M2309 7295 c-66 -21 -132 -84 -171 -163 -150 -304 231 -579 467 -337
24 26 59 77 77 113 26 56 32 79 32 139 1 40 -3 76 -9 82 -7 6 -29 4 -67 -6
l-58 -16 0 -49 c0 -110 -73 -198 -165 -198 -19 0 -35 1 -35 3 0 2 45 88 100
191 55 102 100 189 100 191 0 3 -24 17 -52 31 -64 33 -153 40 -219 19z m111
-141 c0 -12 -125 -244 -132 -244 -4 0 -17 14 -29 31 -43 61 -21 160 44 199 29
18 117 29 117 14z"/>
<path d="M8860 6685 c-74 -96 -138 -175 -142 -175 -3 0 -102 34 -219 75 -117
41 -214 73 -216 72 -1 -2 10 -44 25 -93 l27 -89 135 -45 c74 -25 141 -48 149
-51 11 -4 -13 -39 -83 -127 l-98 -121 27 -93 c15 -51 28 -94 30 -96 1 -1 66
81 144 183 78 102 147 185 154 185 7 0 101 -31 210 -69 108 -37 197 -64 197
-59 0 22 -43 154 -54 164 -6 6 -71 30 -143 53 l-133 42 90 114 c50 63 90 120
90 126 0 12 -50 179 -54 179 -1 0 -62 -79 -136 -175z"/>
<path d="M1979 6720 c-110 -18 -211 -100 -265 -215 -30 -64 -132 -411 -123
-419 7 -6 711 -197 714 -194 2 2 26 88 55 193 61 223 67 308 30 407 -58 155
-239 256 -411 228z m167 -198 c75 -38 124 -115 124 -195 0 -28 -32 -165 -49
-210 l-10 -24 -218 60 c-120 33 -219 61 -221 62 -1 1 9 46 24 100 49 175 118
241 244 232 38 -2 82 -13 106 -25z"/>
<path d="M8527 5600 c-4 -35 -7 -134 -7 -220 0 -129 4 -169 20 -221 35 -112
130 -210 233 -241 23 -7 81 -12 128 -12 77 0 94 4 152 32 124 61 190 170 207
338 5 54 10 158 10 230 l0 131 -87 6 c-49 4 -214 9 -369 13 l-281 7 -6 -63z
m550 -126 l52 -5 -5 -102 c-8 -160 -48 -238 -139 -273 -70 -26 -172 -17 -227
22 -24 16 -54 50 -68 74 -21 39 -25 60 -28 157 -2 62 -2 119 1 126 4 10 43 12
183 10 99 -2 202 -6 231 -9z"/>
<path d="M2111 5475 l-153 -135 -52 46 c-160 145 -197 176 -199 173 -1 -2 -1
-45 1 -96 l3 -91 118 -115 118 -116 -46 -5 c-25 -3 -124 -8 -218 -12 l-173 -6
0 -85 0 -86 78 6 c42 4 205 11 362 17 157 6 300 13 318 16 l32 5 0 79 0 80
-78 0 c-77 0 -78 0 -115 38 l-36 37 104 93 105 92 0 100 c0 55 -3 100 -7 99
-5 0 -77 -61 -162 -134z"/>
<path d="M2156 4872 c-22 -78 -21 -84 17 -103 65 -32 91 -132 51 -199 -23 -39
-79 -71 -137 -77 -117 -12 -195 116 -136 223 l23 44 -49 50 c-46 47 -50 49
-67 33 -10 -9 -30 -40 -44 -70 -24 -47 -26 -62 -22 -131 11 -186 132 -314 298
-314 113 0 211 59 263 157 32 62 36 192 7 269 -32 85 -93 147 -166 170 -19 6
-23 0 -38 -52z"/>
<path d="M8596 4840 c-154 -61 -250 -302 -179 -445 9 -16 17 -32 20 -34 2 -3
28 8 58 25 40 21 53 33 49 44 -4 8 -9 42 -11 75 -7 96 44 175 124 191 l31 6
-54 -208 c-29 -115 -50 -212 -46 -216 18 -18 117 -28 170 -18 219 40 313 332
163 503 -73 83 -223 119 -325 77z m249 -214 c26 -36 26 -111 -1 -157 -22 -37
-107 -81 -123 -63 -5 5 7 67 27 142 34 128 36 132 56 119 11 -8 29 -26 41 -41z"/>
<path d="M2270 4284 c-180 -81 -228 -117 -256 -191 -37 -95 16 -252 121 -360
l57 -58 43 49 43 50 -45 43 c-78 76 -105 173 -62 227 11 14 26 26 33 26 8 0
30 -38 51 -85 61 -137 122 -195 206 -195 87 0 159 73 159 161 0 97 -54 198
-121 228 l-40 18 30 12 29 13 -30 69 c-17 38 -36 69 -42 69 -6 -1 -85 -34
-176 -76z m150 -159 c33 -17 70 -80 70 -120 0 -32 -33 -65 -64 -65 -31 0 -66
42 -96 115 -23 56 -23 58 -5 71 25 18 59 18 95 -1z"/>
<path d="M8329 4263 c-29 -32 -67 -90 -86 -129 -84 -176 -51 -314 80 -344 75
-16 131 24 230 164 41 58 51 67 75 64 23 -3 28 -8 30 -37 5 -50 -23 -113 -73
-167 l-44 -47 29 -37 c52 -66 53 -66 104 -9 88 98 141 248 117 335 -21 77 -80
124 -156 124 -66 0 -116 -40 -194 -157 -46 -70 -68 -86 -94 -72 -44 25 0 148
83 229 l47 46 -39 47 c-22 26 -44 47 -48 47 -4 0 -32 -26 -61 -57z"/>
<path d="M2622 3810 l-33 -48 31 -31 c25 -24 31 -38 28 -63 -3 -29 -15 -41
-108 -105 -58 -40 -110 -72 -116 -73 -6 0 -28 25 -48 56 -37 55 -38 55 -62 40
-89 -58 -86 -50 -46 -109 16 -23 32 -47 36 -54 4 -8 -14 -25 -49 -47 -30 -20
-55 -39 -55 -43 0 -8 81 -133 86 -133 2 0 29 16 60 36 47 30 58 34 65 22 5 -8
16 -25 26 -36 l18 -22 48 31 c26 17 47 36 47 43 0 6 -9 24 -20 40 l-19 30 123
82 c143 95 170 129 170 209 0 75 -60 177 -123 209 -25 13 -27 12 -59 -34z"/>
<path d="M8051 3759 c-24 -38 -42 -71 -40 -73 10 -9 477 -296 481 -296 4 0 67
99 85 132 2 5 -216 144 -447 286 l-36 21 -43 -70z"/>
<path d="M7791 3670 c-87 -41 -191 -146 -232 -234 -27 -58 -31 -75 -27 -134 5
-104 30 -135 272 -344 l210 -180 33 39 c19 21 41 49 50 62 16 22 16 24 -5 41
-29 23 -28 30 3 30 62 0 157 77 198 160 31 62 31 178 0 235 -29 55 -99 118
-156 140 -66 25 -170 17 -230 -18 -81 -48 -146 -144 -147 -216 l0 -34 -26 24
c-33 31 -54 71 -54 104 0 65 89 168 178 207 26 11 49 22 50 23 6 5 -40 125
-47 125 -3 0 -35 -14 -70 -30z m303 -349 c98 -65 82 -207 -29 -261 -61 -30
-106 -21 -157 30 -34 33 -38 43 -38 87 0 119 133 204 224 144z"/>
<path d="M8653 3456 c-52 -23 -79 -98 -53 -147 6 -10 24 -26 41 -34 88 -46
183 84 117 159 -29 32 -64 39 -105 22z"/>
<path d="M2819 3417 c-96 -36 -144 -104 -137 -195 4 -41 20 -85 71 -185 37
-73 67 -142 67 -154 0 -32 -34 -63 -68 -63 -62 0 -152 97 -190 202 -9 27 -21
48 -26 48 -5 0 -35 -9 -66 -21 -58 -21 -58 -21 -49 -52 29 -102 135 -241 223
-292 64 -38 135 -51 190 -35 98 27 165 122 152 214 -4 25 -36 101 -72 170 -35
69 -64 138 -64 154 0 34 27 62 59 62 76 0 194 -143 216 -263 4 -22 12 -36 19
-34 6 2 37 13 69 23 56 17 58 19 52 48 -3 17 -24 68 -46 113 -90 186 -275 306
-400 260z"/>
<path d="M7452 3049 l-62 -50 90 -118 c106 -140 120 -164 120 -213 0 -67 -81
-136 -146 -124 -38 8 -71 43 -184 194 -41 56 -79 101 -83 102 -10 0 -127 -89
-127 -96 0 -15 217 -289 253 -319 93 -80 211 -69 313 30 26 25 49 59 60 91
l18 51 20 -23 21 -24 56 43 c31 23 57 47 58 52 2 10 -329 454 -339 454 -3 0
-33 -22 -68 -50z"/>
<path d="M3364 2548 c-121 -177 -220 -325 -221 -328 -4 -9 127 -91 137 -85 7
4 400 577 433 632 6 10 -51 57 -119 96 -7 4 -96 -118 -230 -315z"/>
<path d="M3767 2613 c-183 -328 -317 -575 -317 -583 0 -15 131 -83 140 -74 8
8 142 247 338 606 l42 76 -65 36 c-36 20 -70 36 -75 36 -5 0 -33 -44 -63 -97z"/>
<path d="M6785 2616 c-54 -17 -96 -40 -135 -73 -41 -34 -90 -101 -90 -122 0
-20 113 -67 119 -50 10 30 77 89 117 105 56 21 128 15 157 -15 12 -11 19 -22
16 -25 -2 -2 -88 -45 -192 -95 -103 -49 -187 -93 -187 -98 0 -20 62 -113 92
-138 61 -51 112 -68 197 -63 119 7 220 70 273 171 33 60 32 194 0 254 -58 110
-142 163 -256 162 -39 0 -89 -6 -111 -13z m245 -303 c0 -103 -118 -175 -209
-129 -67 35 -63 41 70 105 68 33 127 60 132 60 4 1 7 -16 7 -36z"/>
<path d="M4045 2569 c-2 -8 -47 -129 -99 -269 l-94 -255 71 -27 c40 -16 75
-28 78 -28 4 0 21 37 38 83 18 45 43 113 57 150 45 118 97 154 183 128 94 -28
98 -85 24 -286 -29 -77 -53 -146 -55 -153 -2 -9 25 -24 73 -41 l76 -29 64 172
c58 155 64 178 64 247 0 66 -4 81 -28 117 -52 79 -171 126 -266 104 -25 -6
-47 -9 -49 -8 -1 2 2 15 7 29 9 24 7 26 -52 47 -34 13 -68 25 -74 27 -7 3 -15
-1 -18 -8z"/>
<path d="M6353 2436 c-39 -12 -74 -24 -77 -26 -3 -3 13 -66 35 -140 22 -74 41
-156 42 -181 1 -61 -28 -102 -91 -125 -26 -10 -48 -19 -50 -20 -4 -3 39 -144
44 -144 3 0 26 11 52 24 47 24 80 54 100 91 10 18 12 17 18 -12 4 -19 13 -33
21 -33 20 0 126 30 135 39 6 5 -145 538 -154 546 -2 2 -35 -7 -75 -19z"/>
<path d="M5007 2289 c-3 -13 -13 -74 -22 -135 l-17 -111 -116 19 c-65 10 -142
19 -172 21 l-55 2 -9 -59 c-6 -41 -5 -60 3 -65 6 -4 80 -18 164 -30 83 -13
154 -24 158 -26 4 -3 -19 -185 -25 -192 -1 -1 -85 11 -186 27 -102 16 -188 30
-191 30 -7 0 -33 -130 -27 -135 5 -5 550 -86 553 -83 2 2 26 154 54 338 28
184 54 349 57 366 6 30 4 31 -38 37 -23 3 -62 9 -84 13 -38 6 -42 4 -47 -17z"/>
<path d="M5641 2284 c-59 -50 -49 -133 21 -167 31 -15 44 -17 72 -7 50 16 71
45 71 97 0 38 -5 49 -33 74 -42 38 -89 39 -131 3z"/>
</g>
</svg>
